<svg xmlns="http://www.w3.org/2000/svg" version="1.1" xmlns:xlink="http://www.w3.org/1999/xlink" xmlns:svgjs="http://svgjs.com/svgjs" width="1000" height="1000"><rect width="1000" height="1000" rx="200" ry="200" fill="#030712"></rect><g transform="matrix(9.375,0,0,9.375,50.0000658929348,375.78128436021507)"><svg xmlns="http://www.w3.org/2000/svg" version="1.1" xmlns:xlink="http://www.w3.org/1999/xlink" xmlns:svgjs="http://svgjs.com/svgjs" width="96" height="27"><svg width="96" height="27" viewBox="0 0 96 27" fill="none" xmlns="http://www.w3.org/2000/svg">
<path d="M0.925781 14.1044V10.3544L15.9258 3.74929V8.06392L5.6559 12.1868L5.79439 11.9631V12.4957L5.6559 12.272L15.9258 16.3949V20.7095L0.925781 14.1044ZM23.6781 23H18.7349L26.2668 1.18182H32.2114L39.7327 23H34.7896L29.3244 6.16761H29.1539L23.6781 23ZM23.3691 14.424H35.0452V18.0249H23.3691V14.424ZM41.7588 23V1.18182H46.3717V10.8018H46.6594L54.5109 1.18182H60.0401L51.9435 10.951L60.1359 23H54.6175L48.6409 14.0298L46.3717 16.7997V23H41.7588ZM77.6034 0.159089L70.5721 26.2812H66.6623L73.6936 0.159089H77.6034ZM95.0742 16.1499L80.0742 22.755V18.4403L90.3441 14.3175L90.2056 14.5412V14.0085L90.3441 14.2322L80.0742 10.1094V5.79474L95.0742 12.3999V16.1499Z" fill="#F9FAFB"></path>
</svg></svg></g></svg>